<svg t="1640756796787" class="icon" viewBox="0 0 1024 1024" version="1.1" xmlns="http://www.w3.org/2000/svg" p-id="8920" width="200" height="200"><path d="M801.728 364.8a32 32 0 0 0-32 32v91.392c0 129.28-115.648 234.432-257.728 234.432S254.272 617.408 254.272 488.192V393.216a32 32 0 0 0-64 0v94.976c0 157.888 133.248 286.208 300.672 296.448v99.392H357.632c-16.128 0-29.184 14.336-29.184 32.064 0 17.664 13.056 31.936 29.184 31.936h319.04c16.064 0 29.184-14.272 29.184-31.936 0-17.728-13.12-32.064-29.184-32.064H554.944v-101.376c156.992-19.776 278.784-143.488 278.784-294.464V396.8c0-17.728-14.272-32-32-32z" p-id="8921"></path><path d="M517.12 678.656a199.104 199.104 0 0 0 198.912-198.848V268.736A199.168 199.168 0 0 0 517.12 69.888a199.04 199.04 0 0 0-198.784 198.848v211.072a199.04 199.04 0 0 0 198.784 198.848z m85.056-126.784a49.856 49.856 0 1 1 0-99.648 49.856 49.856 0 0 1 0 99.648zM382.336 268.736c0-74.368 60.48-134.848 134.784-134.848a135.04 135.04 0 0 1 134.912 134.848v28.48H382.336v-28.48z" p-id="8922"></path></svg>