<svg t="1640590401770" class="icon" viewBox="0 0 1024 1024" version="1.1" xmlns="http://www.w3.org/2000/svg" p-id="77620" width="200" height="200"><path d="M401.28512 124.88192c152.71424 0 276.49536 123.78112 276.49536 276.49024 0 101.44256-54.63552 190.11584-136.03328 238.22848 109.55776 45.68064 192.98816 143.44704 217.344 264.62208a33.1776 33.1776 0 1 1-65.02912 13.04064c-27.3664-135.99232-145.85344-236.01152-285.65504-239.32928l-6.54848-0.09216-0.57344 0.0256h-0.88576c-142.44864 0.39424-264.08448 101.3504-291.84512 239.3344a33.1776 33.1776 0 0 1-39.36768 25.5232 33.16736 33.16736 0 0 1-25.68704-38.59968c24.35072-121.12384 107.80672-218.84928 217.344-264.55552a276.2752 276.2752 0 0 1-136.05888-238.20288c0.00512-152.70912 123.78624-276.48512 276.50048-276.48512z m265.43104-44.24192c140.48256 0 254.3872 113.8944 254.3872 254.37696 0 82.72896-39.86432 157.73184-103.13216 204.58496l-2.47296 1.7664c103.58272 53.44256 171.96032 159.06304 171.96032 280.28416a33.1776 33.1776 0 0 1-66.35008 0c0-117.2224-80.96256-215.98208-195.72224-243.38944a33.1776 33.1776 0 0 1-0.73216-64.36864l-1.28 0.44032c78.19776-24.73984 131.35872-97.30048 131.36896-179.32288 0.02048-103.83872-84.14208-188.032-187.9808-188.05248-12.38528 0-24.7296 1.21856-36.87424 3.64032a33.18784 33.18784 0 0 1-12.88704-65.1008 255.66208 255.66208 0 0 1 49.7152-4.85888zM401.28512 191.24224c-116.05504 0-210.13504 94.08-210.13504 210.13504s94.08 210.13504 210.13504 210.13504l-0.83968-0.02048 0.83968 0.02048h0.83968c116.05504-0.23552 209.95072-94.49984 209.7152-210.56-0.23552-116.05504-94.50496-209.9456-210.55488-209.71008z" p-id="77621"></path></svg>