<svg t="1643963420186" class="icon" viewBox="0 0 1024 1024" version="1.1" xmlns="http://www.w3.org/2000/svg" p-id="21222" width="200" height="200"><path d="M127 192c-35.346 0-64-28.654-64-64 0-35.346 28.654-64 64-64 35.346 0 64 28.654 64 64 0 35.346-28.654 64-64 64z m0 384c-35.346 0-64-28.654-64-64 0-35.346 28.654-64 64-64 35.346 0 64 28.654 64 64 0 35.346-28.654 64-64 64z m0 384c-35.346 0-64-28.654-64-64 0-35.346 28.654-64 64-64 35.346 0 64 28.654 64 64 0 35.346-28.654 64-64 64zM288 88h632c22.091 0 40 17.909 40 40s-17.909 40-40 40H288c-22.091 0-40-17.909-40-40s17.909-40 40-40z m0 384h632c22.091 0 40 17.909 40 40s-17.909 40-40 40H288c-22.091 0-40-17.909-40-40s17.909-40 40-40z m0 384h632c22.091 0 40 17.909 40 40s-17.909 40-40 40H288c-22.091 0-40-17.909-40-40s17.909-40 40-40z" p-id="21223"></path></svg>