<svg t="1640590218073" class="icon" viewBox="0 0 1024 1024" version="1.1" xmlns="http://www.w3.org/2000/svg" p-id="68339" width="200" height="200"><path d="M831.317333 102.4H507.562667C310.272 102.4 149.674667 262.997333 149.674667 460.288c0 159.232 104.448 294.229333 248.490666 340.650667-1.877333 1.706667-3.925333 3.413333-5.632 5.12a190.2592 190.2592 0 0 0-55.978666 135.509333c0 18.773333 15.36 34.133333 34.133333 34.133333s34.133333-15.36 34.133333-34.133333c0-32.938667 12.8-64 36.010667-87.210667a123.050667 123.050667 0 0 1 87.552-36.352c32.256 0 62.805333 12.458667 86.016 34.816a122.589867 122.589867 0 0 1 37.546667 88.746667c0 18.773333 15.36 34.133333 34.133333 34.133333s34.133333-15.36 34.133333-34.133333c0-52.224-20.650667-101.205333-58.197333-137.728a190.634667 190.634667 0 0 0-133.632-54.101333c-5.12 0-10.24 0.341333-15.189333 0.682666-1.706667-0.341333-3.584-0.512-5.461334-0.512-159.744 0-289.621333-129.877333-289.621333-289.621333S347.989333 170.666667 507.733333 170.666667h289.621334v289.621333c0 80.384-33.792 157.866667-92.842667 212.48-13.824 12.8-14.677333 34.474667-1.877333 48.298667s34.474667 14.677333 48.298666 1.877333c72.874667-67.584 114.688-163.328 114.688-262.656V136.533333c-0.170667-18.773333-15.36-34.133333-34.304-34.133333z" p-id="68340"></path></svg>