<svg t="1640756153103" class="icon" viewBox="0 0 1024 1024" version="1.1" xmlns="http://www.w3.org/2000/svg" p-id="3153" width="200" height="200"><path d="M793.6 753.777778c2.844444 2.844444 8.533333 5.688889 11.377778 11.377778l167.822222 190.577777c2.844444 2.844444 2.844444 11.377778 0 14.222223L938.666667 1001.244444c-2.844444 2.844444-11.377778 2.844444-14.222223 0l-173.511111-193.422222c-2.844444-5.688889-5.688889-8.533333-8.533333-14.222222-68.266667 45.511111-156.444444 73.955556-247.466667 73.955556-244.622222 0-426.666667-187.733333-426.666666-426.666667S258.844444 19.911111 494.933333 14.222222c230.4-5.688889 426.666667 187.733333 426.666667 426.666667 0 125.155556-51.2 244.622222-128 312.888889z m-298.666667-682.666667c-201.955556 0-369.777778 167.822222-369.777777 369.777778s167.822222 369.777778 369.777777 369.777778c213.333333 0 369.777778-162.133333 369.777778-369.777778 0-201.955556-164.977778-369.777778-369.777778-369.777778z" fill="#545E68" p-id="3154"></path></svg>