<svg t="1645178077362" class="icon" viewBox="0 0 1024 1024" version="1.1" xmlns="http://www.w3.org/2000/svg" p-id="4954" width="200" height="200"><path d="M515 61c245.386 0 445 199.614 445 445S760.386 951 515 951 70 751.386 70 506 269.614 61 515 61z m0 60.943c-212.095 0-384.057 171.962-384.057 384.057 0 121.352 56.294 229.566 144.19 299.949 18.317-73.14 69.358-133.3 136.66-164.016-36.003-29.946-58.925-75.088-58.925-125.584 0-90.178 73.104-163.282 163.282-163.282 90.178 0 163.282 73.104 163.282 163.282 0 51.267-23.628 97.016-60.588 126.95 66.312 31.329 116.376 91.417 134.097 164.17l0.003 0.01C841.941 737.138 899.057 628.233 899.057 506c0-212.095-171.962-384.057-384.057-384.057z" fill="#333333" p-id="4955"></path></svg>