<svg t="1640590139334" class="icon" viewBox="0 0 1024 1024" version="1.1" xmlns="http://www.w3.org/2000/svg" p-id="64134" width="200" height="200"><path d="M290.116683 290.116683c-55.545756 57.144195-89.812293 135.56761-90.112 221.883317 0.199805 86.41561 34.566244 164.739122 90.112 221.883317l54.746537-54.746537c-41.559415-42.958049-67.434146-101.800585-67.434147-167.13678s25.874732-124.178732 67.434147-167.13678l-54.746537-54.746537z" p-id="64135"></path><path d="M249.45639 249.556293L194.809756 194.709854C114.188488 276.130341 64.437073 388.220878 64.437073 512S114.28839 747.869659 194.809756 829.290146l54.746537-54.746536C182.921366 707.109463 141.861463 614.599805 141.861463 512s41.059902-195.009561 107.594927-262.443707zM733.883317 290.116683l-54.746537 54.746537c41.559415 42.958049 67.334244 101.800585 67.334244 167.13678s-25.774829 124.178732-67.334244 167.13678l54.746537 54.746537c55.545756-57.144195 89.71239-135.56761 90.012098-221.883317-0.199805-86.315707-34.466341-164.739122-90.012098-221.883317z" p-id="64136"></path><path d="M829.190244 194.809756l-54.746537 54.746537c66.634927 67.434146 107.694829 159.843902 107.69483 262.443707-0.199805 102.699707-41.259707 195.109463-107.69483 262.54361l54.746537 54.746536c80.621268-81.420488 130.372683-193.511024 130.372683-317.290146 0-123.67922-49.751415-235.869659-130.372683-317.190244zM512.099902 359.548878c-84.117854 0-152.451122 68.233366-152.451122 152.451122s68.233366 152.551024 152.451122 152.551024 152.551024-68.233366 152.551025-152.551024c-0.199805-84.117854-68.433171-152.451122-152.551025-152.451122z" p-id="64137"></path></svg>