<svg t="1645176780793" class="icon" viewBox="0 0 1024 1024" version="1.1" xmlns="http://www.w3.org/2000/svg" p-id="3329" width="200" height="200"><path d="M958.8 308.9c-0.1-25.9-16.2-50.9-47.9-74.3-26.2-19.3-62.2-37.1-107.1-52.9-87.9-31-197-49.5-291.9-49.5-95.3 0-204.6 18.5-292.3 49.5-44.8 15.8-80.7 33.6-106.8 52.9C81.3 258 65.3 283 65.2 308.9c-0.8 54.6 9.4 108.5 30.3 160.2 17.1 42.2 41.3 83.3 72.1 122 41.8 52.5 86.9 89.5 113.2 108.8-25.5 34.4-43.1 74.1-51.3 116.1-0.5 2.6-1 5-1.4 7.5l-0.1 0.7-0.1 0.7c-0.2 2-0.3 3.9-0.3 5.7 0 33.7 27.4 61.2 61.2 61.2 16 0 31.2-6.2 42.7-17.3l1-1 0.7-0.7c22.9-24 49.9-42.8 80.1-56 31.3-13.7 64.6-20.6 99.1-20.6 67.7 0 130.9 26.8 178.1 75.5l1.1 1.1 1.6 1.6 0.9 0.9c11.4 10.6 26.2 16.5 41.7 16.5 33.7 0 61.2-27.4 61.2-61.2 0-2.3-0.2-4.7-0.5-7.3l-0.2-1c-0.1-0.5-0.2-0.9-0.2-1.4-0.2-1-0.3-2-0.5-2.9-8-42.7-25.9-83.2-52.1-118.2 61.9-45.7 218.3-181.6 215.3-390.9z m-255.3 370l-19 12.6 15 17.2c29.1 33.4 48.7 73.7 56.8 116.6 0.1 0.6 0.2 1.3 0.3 2 0.1 0.4 0.1 0.8 0.2 1.2 0.1 0.8 0.1 1.5 0.1 2.1 0 11.7-9.5 21.2-21.2 21.2-5.2 0-10.2-1.9-14.1-5.4-0.5-0.6-1.1-1.1-1.6-1.7l-0.9-0.9c-26.6-27.4-57.7-49-92.6-64.1-36.1-15.6-74.6-23.6-114.2-23.6-40 0-78.7 8.1-115.1 23.9-35.1 15.3-66.4 37.2-93 65l-0.3 0.4-0.5 0.5c-4 3.8-9.1 5.8-14.5 5.8-11.7 0-21.2-9.5-21.2-21.2 0-0.4 0-0.8 0.1-1.3 0.3-1.8 0.7-3.6 1.1-5.6 8.2-42.3 27.6-81.9 56.1-114.7l14.9-17.2-19-12.6c-15.8-10.4-71.2-49.4-121.8-112.9-28.4-35.7-50.7-73.4-66.3-112-18.9-46.8-28.1-95.5-27.4-144.7v-0.3c0-20.5 33.5-56.3 127.8-89.7 83.7-29.5 188-47.2 279-47.2 90.6 0 194.7 17.6 278.6 47.2 94.7 33.4 128.2 69.2 128.2 89.6v0.3c1.3 90.4-30.1 176.7-93.4 256.3-50.7 63.6-106.3 102.8-122.1 113.2z" p-id="3330"></path><path d="M330 511.4c-38.2-64.3-57-132.3-55.9-202.1l-40-0.6c-1.1 77.2 19.6 152.3 61.5 223.1C332.5 594 379.1 641 411.7 669.4l26.3-30.1c-30.4-26.5-73.8-70.2-108-127.9zM747.1 309.4c1 69.9-17.8 137.8-55.8 202.1-34.1 57.5-77.6 101.3-108.1 127.8l26.3 30.2c32.7-28.5 79.4-75.5 116.2-137.6 41.9-70.7 62.6-145.7 61.4-223.1l-40 0.6zM490.7 284.5h40v384h-40z" p-id="3331"></path></svg>